<svg width="34" height="34" viewBox="0 0 34 34" fill="none" xmlns="http://www.w3.org/2000/svg">
<path d="M34 17.2657C33.7296 18.0556 33.1696 18.3406 32.3478 18.3373C27.7906 18.3187 23.2333 18.3313 18.6767 18.3207C18.3864 18.32 18.32 18.3864 18.3207 18.6768C18.3313 23.234 18.3187 27.7912 18.3373 32.3478C18.3406 33.1689 18.0556 33.729 17.2657 34H16.7343C15.9444 33.7296 15.6594 33.1696 15.6627 32.3478C15.6813 27.7906 15.6687 23.2333 15.6793 18.6768C15.68 18.3864 15.6136 18.32 15.3233 18.3207C10.766 18.3313 6.20875 18.3187 1.65217 18.3373C0.831067 18.3406 0.271043 18.0556 0 17.2657V16.7343C0.270379 15.9444 0.830402 15.6594 1.65217 15.6627C6.20942 15.6813 10.7667 15.6687 15.3233 15.6793C15.6136 15.68 15.68 15.6136 15.6793 15.3233C15.6687 10.766 15.6813 6.20875 15.6627 1.65217C15.6594 0.831067 15.9444 0.271043 16.7343 0H17.2657C18.0556 0.270379 18.3406 0.830403 18.3373 1.65217C18.3187 6.20942 18.3313 10.7667 18.3207 15.3233C18.32 15.6136 18.3864 15.68 18.6767 15.6793C23.234 15.6687 27.7912 15.6813 32.3478 15.6627C33.1689 15.6594 33.729 15.9444 34 16.7343V17.2657Z" fill="white"/>
</svg>
