<svg width="32" height="36" viewBox="0 0 32 36" fill="none" xmlns="http://www.w3.org/2000/svg">
<path d="M13.1471 35.3628C12.3089 35.2305 11.4634 35.1356 10.6349 34.9587C7.35747 34.2584 4.51172 32.7321 2.09036 30.4146C1.5256 29.8742 1.45581 29.2412 1.90454 28.7844C2.35814 28.3219 2.96916 28.3697 3.54772 28.924C5.73214 31.0143 8.30849 32.3572 11.263 32.9804C19.4156 34.6998 27.6615 29.4189 29.5343 21.2785C31.5459 12.5352 25.9907 3.99468 17.1492 2.37746C12.4006 1.5084 8.12185 2.7061 4.36566 5.74416C4.29588 5.80096 4.2334 5.8675 4.19201 6.00869C4.70241 5.93972 5.21281 5.87075 5.72321 5.80177C5.92364 5.77418 6.12407 5.74091 6.32531 5.71657C6.94688 5.64192 7.45728 6.00463 7.54167 6.57752C7.62687 7.15446 7.24711 7.66729 6.63528 7.76385C5.87496 7.88395 5.11138 7.98457 4.34862 8.09249C3.43899 8.2207 2.52936 8.34809 1.61973 8.47468C1.47285 8.49497 1.32436 8.51525 1.17586 8.52093C0.398497 8.55258 -0.0899945 8.04218 0.0138707 7.27536C0.203749 5.88292 0.412291 4.49372 0.61353 3.1029C0.673577 2.68825 0.721453 2.27116 0.801786 1.86138C0.917012 1.27714 1.38197 0.944448 1.94593 1.01423C2.50015 1.08321 2.89207 1.53356 2.83446 2.12348C2.75656 2.91464 2.62511 3.70093 2.50258 4.59515C2.66568 4.46045 2.76062 4.38093 2.85637 4.30384C8.06505 0.0761998 13.9099 -1.13123 20.2262 1.10187C26.5466 3.3366 30.4342 7.94399 31.6871 14.5265C33.525 24.1802 27.0724 33.3723 17.4227 35.0958C16.7865 35.2094 16.1406 35.2744 15.4995 35.362H13.1463L13.1471 35.3628Z" fill="white"/>
</svg>
