<svg width="24" height="32" viewBox="0 0 24 32" fill="none" xmlns="http://www.w3.org/2000/svg">
<path d="M24 20.7694C23.943 21.1023 23.8853 21.4359 23.8296 21.7688C23.341 24.6888 21.9324 27.097 19.6588 28.9903C17.9264 30.4332 15.9196 31.3084 13.6679 31.619C10.6527 32.0351 7.87302 31.3904 5.35076 29.7338C3.09406 28.2517 1.5207 26.2088 0.646335 23.6614C-0.303819 20.8936 -0.197968 18.1494 0.901881 15.4393C1.80381 13.2156 3.16359 11.2677 4.60228 9.36694C6.38296 7.01528 8.17805 4.67354 9.95121 2.31629C10.3233 1.82185 10.6383 1.28331 10.9615 0.753475C11.16 0.427372 11.3924 0.150961 11.7526 -0.0012207H12.2524C12.476 0.189472 12.766 0.33979 12.9132 0.57769C14.3575 2.91383 16.0455 5.07232 17.7435 7.22584C19.2354 9.11911 20.733 11.0099 21.9462 13.0994C22.7849 14.5442 23.4538 16.0573 23.7845 17.7021C23.8647 18.1028 23.9292 18.5059 24.0012 18.9084V20.7681L24 20.7694ZM11.9975 2.89644C11.6154 3.44429 11.279 3.9673 10.902 4.45987C9.35556 6.48419 7.78784 8.49237 6.24517 10.5198C4.93424 12.2429 3.6966 14.0138 2.84227 16.0182C1.89776 18.232 1.73992 20.493 2.46647 22.7881C3.71163 26.72 7.28176 29.4872 11.3742 29.7183C13.8307 29.8568 16.0417 29.2046 18.0053 27.7436C21.5754 25.0876 23.0385 20.283 21.1558 15.9977C20.3634 14.1951 19.2943 12.564 18.1174 11.0012C16.5722 8.94953 14.9794 6.93453 13.4199 4.89343C12.9319 4.25427 12.4854 3.58405 11.9975 2.89706V2.89644Z" fill="white"/>
</svg>
