<svg width="34" height="34" viewBox="0 0 34 34" fill="none" xmlns="http://www.w3.org/2000/svg">
<g clip-path="url(#clip0_7_85)">
<path d="M0 15.9063C0.0863281 15.2847 0.142773 14.6579 0.263633 14.0429C1.40848 8.22243 4.67832 4.04216 10.0373 1.48884C10.5984 1.22189 11.224 1.45763 11.4717 1.98954C11.7293 2.54204 11.4856 3.15497 10.8707 3.43654C8.82738 4.37154 7.0623 5.67775 5.63059 7.40763C3.06398 10.5081 1.82551 14.0761 2.19406 18.0897C2.73395 23.9707 5.75078 28.2612 11.1649 30.5735C16.7297 32.9508 22.007 32.0623 26.6794 28.2014C29.5249 25.85 31.1552 22.7521 31.7196 19.1084C32.6991 12.7879 29.2659 6.34978 23.456 3.58993C23.3265 3.52818 23.1944 3.47107 23.0662 3.40665C22.5064 3.12575 22.278 2.52013 22.529 1.98755C22.7787 1.45697 23.3976 1.23517 23.9653 1.4895C25.3346 2.10243 26.607 2.87673 27.7591 3.8363C31.1744 6.68181 33.1971 10.3089 33.8466 14.699C33.909 15.122 33.9489 15.5484 33.9993 15.9734V18.028C33.9801 18.1243 33.9495 18.2199 33.9422 18.3175C33.8074 20.1151 33.3924 21.8463 32.6918 23.5065C29.4963 31.0801 21.4957 35.2504 13.426 33.5531C6.68644 32.134 1.41645 26.6714 0.256992 19.8913C0.151406 19.2738 0.085 18.6489 0 18.0273V15.9063Z" fill="white"/>
<path d="M17.2656 0C17.8686 0.259648 18.0751 0.715859 18.0718 1.36664C18.0525 5.17371 18.0625 8.98078 18.0618 12.7879C18.0618 13.337 17.8208 13.7295 17.3878 13.8982C16.7397 14.1512 16.0152 13.7109 15.9435 13.0176C15.9309 12.8974 15.9375 12.7752 15.9375 12.6537C15.9375 8.89113 15.9468 5.12789 15.9282 1.36531C15.9249 0.716523 16.1268 0.256992 16.7344 0.000664063H17.2656V0Z" fill="white"/>
</g>
<defs>
<clipPath id="clip0_7_85">
<rect width="34" height="33.9283" fill="white"/>
</clipPath>
</defs>
</svg>
