<svg width="24" height="24" viewBox="0 0 24 24" fill="none" xmlns="http://www.w3.org/2000/svg">
<path d="M21 22H3C2.73478 22 2.48043 21.8946 2.29289 21.7071C2.10536 21.5196 2 21.2652 2 21L2 16H0L0 21C0 21.7956 0.31607 22.5587 0.87868 23.1213C1.44129 23.6839 2.20435 24 3 24H21C21.7956 24 22.5587 23.6839 23.1213 23.1213C23.6839 22.5587 24 21.7956 24 21V16H22V21C22 21.2652 21.8946 21.5196 21.7071 21.7071C21.5196 21.8946 21.2652 22 21 22V22Z" fill="white"/>
<path d="M12.9995 4.16039e-05H10.9995L11.0305 16.444L6.70648 12.121L5.29248 13.537L9.87848 18.123C10.4411 18.6855 11.204 19.0014 11.9995 19.0014C12.795 19.0014 13.5579 18.6855 14.1205 18.123L18.7065 13.537L17.2925 12.123L13.0295 16.386L12.9995 4.16039e-05Z" fill="white"/>
</svg>
