<svg width="18" height="39" viewBox="0 0 18 39" fill="none" xmlns="http://www.w3.org/2000/svg">
<g clip-path="url(#clip0_42_128)">
<path d="M8.28717 0C8.74566 0 9.20491 0 9.6634 0C9.73251 0.02594 9.8001 0.064087 9.87152 0.0747682C12.3498 0.441743 14.3842 2.68479 14.3957 5.16969C14.4226 10.8513 14.4172 16.5329 14.3995 22.2153C14.398 22.7501 14.5677 23.082 14.9671 23.4299C16.4593 24.7307 17.397 26.3703 17.7672 28.3158C17.8731 28.872 17.9238 29.4396 17.9999 30.0019V30.0782C17.9768 30.2124 17.9353 30.3467 17.9323 30.4818C17.9092 31.4423 17.6865 32.3601 17.354 33.2573C15.8272 37.3749 11.1648 39.824 6.89635 38.7475C2.44665 37.6244 -0.428677 33.6045 0.0520812 29.0787C0.295532 26.7853 1.31465 24.8452 3.08792 23.3361C3.41508 23.0576 3.55332 22.7845 3.55255 22.3442C3.53719 16.6596 3.51876 10.9741 3.55946 5.28947C3.57482 3.12119 4.67611 1.53733 6.60221 0.556947C7.12367 0.291443 7.72347 0.18158 8.28717 0ZM12.0488 14.3158H12.038C12.038 11.2831 12.0672 8.24968 12.0234 5.21775C12.0057 3.99628 11.3192 3.10441 10.2064 2.61689C9.10737 2.13547 8.0322 2.27509 7.07606 3.0159C6.21976 3.67966 5.89336 4.58451 5.89567 5.65415C5.90642 11.5174 5.8972 17.3798 5.90642 23.243C5.90719 23.8533 5.71903 24.3302 5.1922 24.6598C5.08468 24.7269 4.9833 24.8055 4.88577 24.8864C2.8053 26.6022 1.96206 28.8163 2.51731 31.4248C3.37668 35.4638 7.53531 37.6542 11.4029 36.1672C14.1799 35.0998 15.9401 32.3227 15.5331 29.1779C15.2927 27.3217 14.3819 25.8072 12.8306 24.7231C12.2592 24.3241 12.0365 23.8305 12.0411 23.1476C12.0595 20.2034 12.0488 17.2592 12.0488 14.3151V14.3158Z" fill="white"/>
<path d="M10.1566 18.4899C10.1566 20.9763 10.162 23.4635 10.1497 25.9499C10.1482 26.2314 10.2235 26.3726 10.493 26.4832C12.4998 27.3072 13.462 29.7249 12.5497 31.6132C11.5221 33.7403 9.13291 34.5635 7.12771 33.4481C5.69696 32.6531 4.98043 31.4065 5.09562 29.7753C5.20545 28.2151 6.03333 27.1004 7.48021 26.4748C7.73979 26.3627 7.80046 26.223 7.79969 25.9644C7.79278 21.0801 7.79432 16.1949 7.79585 11.3106C7.79585 11.1084 7.79893 10.9039 7.82657 10.7033C7.90414 10.138 8.38413 9.73665 8.9678 9.7336C9.55223 9.73055 10.0399 10.128 10.1221 10.6888C10.1497 10.8757 10.1543 11.068 10.1543 11.258C10.1566 13.6688 10.1559 16.079 10.1559 18.4899H10.1566Z" fill="white"/>
</g>
<defs>
<clipPath id="clip0_42_128">
<rect width="18" height="39" fill="white"/>
</clipPath>
</defs>
</svg>
