<svg width="4" height="14" viewBox="0 0 4 14" fill="none" xmlns="http://www.w3.org/2000/svg">
<path d="M2.00004 3.66659C2.91671 3.66659 3.66671 2.91659 3.66671 1.99992C3.66671 1.08325 2.91671 0.333252 2.00004 0.333252C1.08337 0.333252 0.333374 1.08325 0.333374 1.99992C0.333374 2.91659 1.08337 3.66659 2.00004 3.66659ZM2.00004 5.33325C1.08337 5.33325 0.333374 6.08325 0.333374 6.99992C0.333374 7.91658 1.08337 8.66658 2.00004 8.66658C2.91671 8.66658 3.66671 7.91658 3.66671 6.99992C3.66671 6.08325 2.91671 5.33325 2.00004 5.33325ZM2.00004 10.3333C1.08337 10.3333 0.333374 11.0833 0.333374 11.9999C0.333374 12.9166 1.08337 13.6666 2.00004 13.6666C2.91671 13.6666 3.66671 12.9166 3.66671 11.9999C3.66671 11.0833 2.91671 10.3333 2.00004 10.3333Z" fill="black"/>
</svg>
