<svg width="36" height="36" viewBox="0 0 36 36" fill="none" xmlns="http://www.w3.org/2000/svg">
<path d="M4.09166 26.7535V24.0829H3.68938C2.73484 24.0829 1.7803 24.0829 0.826749 24.0829C0.727421 24.0829 0.628092 24.0879 0.529758 24.0779C0.186083 24.0422 -0.0234993 23.8286 0.00530579 23.5277C0.0360975 23.2 0.240713 23.053 0.558563 23.053C1.5876 23.052 2.61565 23.052 3.64468 23.052C3.77878 23.052 3.91386 23.052 4.07577 23.052V20.3744C3.53741 20.3744 3.00799 20.3744 2.47857 20.3744C1.85877 20.3744 1.23896 20.3784 0.619153 20.3724C0.220848 20.3684 -0.00860013 20.1638 0.00133267 19.8391C0.0102722 19.5262 0.226807 19.3445 0.614187 19.3435C1.64322 19.3395 2.67127 19.3425 3.70031 19.3425C3.82149 19.3425 3.94167 19.3425 4.08272 19.3425V16.6649H3.69335C2.70206 16.6649 1.70977 16.6649 0.718481 16.6649C0.232767 16.6649 0.00629907 16.505 0.000339392 16.1604C-0.00562029 15.8078 0.235747 15.634 0.73636 15.633C1.8389 15.633 2.94045 15.633 4.07279 15.633V12.9554C3.85129 12.9554 3.63177 12.9554 3.41325 12.9554C2.52128 12.9554 1.62833 12.9554 0.73636 12.9554C0.221841 12.9554 -0.00661357 12.7916 0.000339392 12.435C0.00729235 12.0864 0.2427 11.9245 0.757219 11.9245C1.72368 11.9235 2.69114 11.9245 3.6576 11.9245C3.7907 11.9245 3.92479 11.9245 4.08073 11.9245V9.25388C3.94267 9.25388 3.81056 9.25388 3.67846 9.25388C2.6375 9.25388 1.59654 9.25885 0.555583 9.24792C0.194029 9.24296 -0.00264045 9.04333 0.00133267 8.73346C0.00530579 8.42856 0.203962 8.25078 0.570482 8.23092C0.66981 8.22496 0.769138 8.22893 0.867473 8.22893C1.79718 8.22893 2.72689 8.22893 3.6566 8.22893H4.10457C4.10457 7.84954 4.12543 7.50591 4.10159 7.16525C3.93571 4.88295 4.82271 3.9305 7.18176 4.10331C7.51351 4.12714 7.84825 4.10629 8.22966 4.10629C8.22966 3.9444 8.22966 3.81132 8.22966 3.67823C8.22966 2.68705 8.22768 1.69487 8.22966 0.703692C8.23066 0.225977 8.40548 -0.00344474 8.75014 0.00251427C9.09382 0.00847329 9.24678 0.227964 9.25076 0.722562C9.25076 0.797049 9.25076 0.871537 9.25076 0.946025C9.25076 1.8508 9.25076 2.75558 9.25076 3.66036C9.25076 3.79344 9.25076 3.92752 9.25076 4.10629H11.9257C11.9257 3.94738 11.9257 3.81628 11.9257 3.68518C11.9257 2.74366 11.9257 1.80114 11.9257 0.859619C11.9257 0.773213 11.9227 0.685814 11.9267 0.599409C11.9445 0.217039 12.1342 0.00152111 12.4461 0.00152111C12.764 0.00152111 12.9507 0.213066 12.9527 0.600402C12.9577 1.61641 12.9547 2.63342 12.9547 3.64943C12.9547 3.78351 12.9547 3.91759 12.9547 4.07749H15.6306C15.6306 3.9593 15.6306 3.82919 15.6306 3.70008C15.6306 2.65924 15.6256 1.61741 15.6336 0.576566C15.6366 0.2081 15.8571 -0.0113901 16.1709 0.00152111C16.4709 0.0134391 16.6507 0.224984 16.6626 0.582525C16.6656 0.657013 16.6626 0.7315 16.6626 0.805988C16.6626 1.77234 16.6626 2.73969 16.6626 3.70604C16.6626 3.82621 16.6626 3.94738 16.6626 4.08543H19.3395C19.3395 3.95135 19.3395 3.82026 19.3395 3.68916C19.3395 2.67315 19.3375 1.65614 19.3395 0.640129C19.3405 0.225977 19.5223 0.00450061 19.8471 0.00152111C20.1709 -0.0014584 20.3685 0.225977 20.3705 0.630197C20.3745 1.76936 20.3725 2.90853 20.3725 4.0755H23.0484C23.0484 3.4508 23.0484 2.83503 23.0484 2.21927C23.0484 1.68594 23.0454 1.1536 23.0494 0.620265C23.0524 0.221011 23.2212 0.0134391 23.5351 0.000527937C23.8609 -0.0123833 24.0715 0.212073 24.0745 0.613313C24.0814 1.69189 24.0774 2.76948 24.0784 3.84806C24.0784 3.91957 24.0894 3.99108 24.0973 4.08245H26.7524C26.7524 3.80635 26.7524 3.5372 26.7524 3.26905C26.7524 2.41393 26.7504 1.55881 26.7524 0.703692C26.7533 0.222005 26.9222 -0.00443791 27.2679 0.000527937C27.6115 0.00549378 27.7705 0.227964 27.7725 0.718589C27.7744 1.69785 27.7725 2.67712 27.7725 3.65638C27.7725 3.79046 27.7725 3.92454 27.7725 4.1043C28.3625 4.1043 28.9157 4.1043 29.469 4.1043C31.1129 4.1043 31.8965 4.89288 31.8965 6.5475C31.8965 7.09175 31.8965 7.63601 31.8965 8.22695C32.0952 8.22695 32.2661 8.22695 32.4359 8.22695C33.4401 8.22695 34.4443 8.22198 35.4475 8.2329C35.8061 8.23688 36.0048 8.44346 35.9988 8.75035C35.9928 9.05525 35.7932 9.23005 35.4257 9.24892C35.3263 9.25388 35.227 9.2509 35.1287 9.2509C34.199 9.2509 33.2693 9.2509 32.3396 9.2509H31.9174V11.9215C32.133 11.9215 32.3386 11.9215 32.5452 11.9215C33.45 11.9215 34.3549 11.9205 35.2598 11.9215C35.7584 11.9225 36.0038 12.1013 35.9988 12.4509C35.9938 12.7925 35.7684 12.9515 35.2807 12.9524C34.2894 12.9534 33.2971 12.9524 32.3058 12.9524C32.1846 12.9524 32.0634 12.9524 31.9194 12.9524V15.63C32.0465 15.63 32.1767 15.63 32.3068 15.63C33.311 15.63 34.3142 15.629 35.3184 15.63C35.7604 15.63 35.9928 15.8098 35.9978 16.1395C36.0018 16.4752 35.7723 16.659 35.3333 16.6599C34.2069 16.6619 33.0795 16.6599 31.9244 16.6599V19.3375C32.1916 19.3375 32.4597 19.3375 32.7289 19.3375C33.609 19.3375 34.489 19.3355 35.3691 19.3385C35.7773 19.3405 36.0018 19.5302 35.9978 19.856C35.9948 20.1768 35.7664 20.3665 35.3581 20.3674C34.3539 20.3714 33.3507 20.3684 32.3465 20.3684C32.2124 20.3684 32.0783 20.3684 31.9204 20.3684V23.046C32.0446 23.046 32.1747 23.046 32.3038 23.046C33.308 23.046 34.3112 23.045 35.3154 23.046C35.7713 23.046 35.9928 23.2119 35.9988 23.5446C36.0048 23.8872 35.7644 24.0749 35.2995 24.0759C34.1851 24.0789 33.0696 24.0769 31.9263 24.0769V26.7486C32.3445 26.7486 32.7508 26.7486 33.157 26.7486C33.901 26.7486 34.644 26.7446 35.3879 26.7515C35.7862 26.7555 35.9928 26.9323 35.9998 27.2471C36.0077 27.5729 35.7882 27.7675 35.376 27.7705C34.3599 27.7765 33.3438 27.7725 32.3266 27.7735C32.1935 27.7735 32.0604 27.7735 31.8965 27.7735C31.8965 28.425 31.8975 29.0309 31.8965 29.6367C31.8926 31.049 31.0403 31.8942 29.619 31.8962C29.025 31.8962 28.431 31.8962 27.7943 31.8962C27.7864 32.0461 27.7734 32.1762 27.7725 32.3063C27.7705 33.3353 27.7705 34.3642 27.7705 35.3921C27.7705 35.7139 27.6572 35.9552 27.3036 35.996C26.9739 36.0337 26.7553 35.8053 26.7524 35.408C26.7454 34.392 26.7494 33.375 26.7494 32.359C26.7494 32.2249 26.7494 32.0898 26.7494 31.9259H24.0745C24.0745 32.5298 24.0745 33.1217 24.0745 33.7127C24.0745 34.2827 24.0824 34.8528 24.0705 35.4229C24.0625 35.7943 23.845 36.0108 23.5321 35.9989C23.2282 35.987 23.0494 35.7834 23.0474 35.4159C23.0425 34.3999 23.0454 33.3829 23.0454 32.3669C23.0454 32.2318 23.0454 32.0968 23.0454 31.9289H20.3695C20.3695 32.207 20.3695 32.4881 20.3695 32.7682C20.3695 33.6362 20.3725 34.5032 20.3675 35.3712C20.3656 35.7745 20.1659 36.0029 19.8431 35.9989C19.5193 35.995 19.3385 35.7715 19.3375 35.3573C19.3345 34.2192 19.3375 33.081 19.3375 31.92H16.6606C16.6606 32.8983 16.6606 33.8616 16.6606 34.825C16.6606 35.0356 16.6656 35.2471 16.6586 35.4567C16.6477 35.7735 16.4918 35.9731 16.165 35.996C15.865 36.0168 15.6465 35.7983 15.6316 35.4567C15.6177 35.1349 15.6276 34.8121 15.6276 34.4903C15.6276 33.6382 15.6276 32.787 15.6276 31.916H12.9517C12.9517 32.0551 12.9517 32.1871 12.9517 32.3182C12.9517 33.3343 12.9537 34.3513 12.9507 35.3673C12.9497 35.7844 12.768 36.0009 12.4392 35.9989C12.1184 35.9969 11.9267 35.7715 11.9247 35.3603C11.9187 34.3562 11.9227 33.3521 11.9227 32.348C11.9227 32.214 11.9227 32.0789 11.9227 31.921H9.24778C9.24778 32.0501 9.24778 32.1802 9.24778 32.3103C9.24778 33.3392 9.24678 34.3681 9.24778 35.3961C9.24778 35.7208 9.13156 35.9572 8.77796 35.995C8.45017 36.0297 8.23265 35.8023 8.22966 35.402C8.22172 34.386 8.22669 33.369 8.22669 32.353C8.22669 32.2189 8.22669 32.0839 8.22669 31.8952C7.59397 31.8952 6.99303 31.9061 6.3911 31.8902C6.10901 31.8832 5.81699 31.8644 5.5488 31.7849C4.6767 31.5287 4.11848 30.7471 4.10457 29.7956C4.09563 29.1401 4.10259 28.4836 4.10259 27.7725C3.94565 27.7725 3.81453 27.7725 3.68342 27.7725C2.64246 27.7725 1.60151 27.7775 0.560549 27.7675C0.198995 27.7646 -0.00959341 27.5639 0.000339392 27.26C0.0112655 26.9313 0.202969 26.7704 0.522805 26.7535C0.622133 26.7486 0.721461 26.7495 0.819795 26.7495C1.76143 26.7495 2.70405 26.7495 3.64568 26.7495H4.08769L4.09166 26.7535ZM30.8675 18.0404C30.8675 14.174 30.8675 10.3076 30.8675 6.44123C30.8675 5.50368 30.503 5.1372 29.5663 5.1372C21.8585 5.1372 14.1496 5.1372 6.44176 5.1372C5.50311 5.1372 5.13858 5.50169 5.13858 6.43924C5.13858 14.1472 5.13858 21.8562 5.13858 29.5642C5.13858 30.5017 5.50311 30.8682 6.43977 30.8682C14.1476 30.8682 21.8565 30.8682 29.5643 30.8682C30.501 30.8682 30.8675 30.5017 30.8675 29.5662C30.8675 25.7246 30.8675 21.883 30.8675 18.0404Z" fill="white"/>
<path d="M8.2525 11.3127H10.1447C11.2969 11.3127 12.4501 11.3078 13.6023 11.3167C13.8328 11.3187 13.9668 11.2789 14.0721 11.0336C14.4337 10.1944 15.3346 9.74252 16.2047 9.92029C17.1016 10.103 17.7612 10.8886 17.7771 11.7914C17.792 12.7061 17.1821 13.4897 16.2782 13.7172C15.4051 13.9367 14.4645 13.5017 14.088 12.6604C13.9708 12.3992 13.8347 12.3367 13.5666 12.3397C11.9306 12.3536 10.2947 12.3466 8.65876 12.3466H8.26045V15.925C8.36872 15.93 8.48692 15.9399 8.60611 15.9399C9.41166 15.9409 10.2172 15.93 11.0228 15.9468C11.282 15.9518 11.4072 15.8714 11.5184 15.629C11.8959 14.8087 12.7699 14.3856 13.6371 14.5653C14.5221 14.7491 15.1548 15.4791 15.1935 16.36C15.2333 17.2807 14.68 18.0643 13.8049 18.3255C12.9219 18.5887 11.9594 18.1785 11.5363 17.3542C11.4747 17.234 11.4221 17.1088 11.3645 16.9847H8.22867C8.22867 17.5657 8.22867 18.1308 8.22867 18.6959C8.22867 18.8568 8.23562 19.0197 8.21377 19.1786C8.17205 19.4795 7.98631 19.6504 7.68137 19.6325C7.39729 19.6156 7.2334 19.4428 7.21055 19.1528C7.20261 19.0545 7.20459 18.9542 7.20459 18.8558C7.20459 15.3986 7.20459 11.9414 7.20459 8.48417C7.20459 7.55755 7.55522 7.20596 8.47897 7.20596C14.825 7.20596 21.1711 7.20596 27.5172 7.20596C28.4638 7.20596 28.8025 7.5496 28.8025 8.51099C28.8025 12.9971 28.8025 17.4833 28.8025 21.9694C28.8025 23.8405 28.8045 25.7117 28.8025 27.5828C28.8015 28.4349 28.433 28.7984 27.5778 28.7984C23.3891 28.7984 19.1994 28.7984 15.0108 28.7984C12.8176 28.7984 10.6235 28.7984 8.4303 28.7984C7.58005 28.7984 7.20956 28.429 7.20658 27.5808C7.2036 26.8369 7.2036 26.0931 7.20658 25.3502C7.20857 24.9648 7.39133 24.7384 7.69329 24.7265C8.00816 24.7135 8.22171 24.9499 8.22668 25.3482C8.2376 26.1159 8.23562 26.8846 8.24058 27.6533C8.24058 27.6762 8.25648 27.698 8.27535 27.7487H13.7702C13.7702 27.1915 13.7295 26.6234 13.7811 26.0633C13.8367 25.4525 13.642 25.0085 13.0828 24.6986C12.6666 24.9152 12.2077 25.0552 11.6912 24.932C10.7337 24.7036 10.1338 23.7869 10.3304 22.8216C10.5301 21.8443 11.4519 21.2335 12.4471 21.4212C13.3798 21.597 14.0344 22.5176 13.8447 23.4641C13.7781 23.7949 13.8526 24.0064 14.1009 24.1852C14.689 24.6093 14.8836 25.1734 14.8161 25.8914C14.7595 26.5022 14.8042 27.123 14.8042 27.7576H18.0006C18.0006 27.0981 18.0075 26.4446 17.9926 25.7921C17.9906 25.7017 17.8893 25.6034 17.8148 25.5269C17.4155 25.1198 16.9944 24.7334 16.6149 24.3083C16.4808 24.1584 16.3904 23.925 16.3755 23.7224C16.3408 23.2665 16.3487 22.8057 16.3706 22.3478C16.3845 22.0677 16.31 21.9188 16.0329 21.7926C15.1439 21.3884 14.7317 20.3794 15.0326 19.4517C15.3336 18.5231 16.2852 17.9709 17.2665 18.1556C18.1813 18.3275 18.8727 19.1995 18.815 20.1499C18.7674 20.9335 18.376 21.5106 17.6559 21.8294C17.4463 21.9227 17.4185 22.0399 17.3877 22.2425C17.2337 23.2476 17.5238 24.0521 18.374 24.6391C18.9392 25.0294 19.116 25.5736 19.0475 26.25C18.9978 26.7376 19.0375 27.2352 19.0375 27.7516H27.7466V23.1424C27.539 23.1424 27.3324 23.1424 27.1268 23.1424C26.1474 23.1424 25.1681 23.1483 24.1897 23.1374C23.9731 23.1354 23.8728 23.2019 23.7824 23.4055C23.3871 24.2934 22.4614 24.7453 21.5505 24.5209C20.6308 24.2944 20.0308 23.4761 20.0745 22.5087C20.1162 21.598 20.8125 20.8511 21.7561 20.7041C22.5726 20.577 23.4 21.0478 23.7874 21.8393C23.841 21.9496 23.9751 22.0965 24.0735 22.0975C25.2863 22.1154 26.4991 22.1095 27.7446 22.1095V16.2726H25.9975C25.7005 16.2726 25.3965 16.3123 25.1065 16.2647C24.4916 16.1634 24.0943 16.4494 23.8083 16.8874C23.8957 17.2459 24.0258 17.5756 24.0467 17.9113C24.1102 18.9194 23.2381 19.7894 22.2359 19.7576C21.1741 19.7239 20.3536 18.8062 20.4689 17.7822C20.588 16.7265 21.5664 15.9786 22.5806 16.2051C22.8656 16.2686 23.0564 16.2229 23.2143 15.9985C23.6662 15.3599 24.2731 15.1722 25.0459 15.2298C25.9081 15.2953 26.7802 15.2417 27.6473 15.2387C27.6701 15.2387 27.693 15.2238 27.7446 15.2049V11.3594C27.6304 11.3505 27.5341 11.3356 27.4377 11.3356C26.4832 11.3336 25.5286 11.3246 24.5751 11.3435C24.4112 11.3465 24.2344 11.4448 24.0904 11.5402C23.7397 11.7735 23.6404 12.0268 23.84 12.4817C24.1639 13.2206 23.8122 14.0817 23.1358 14.5276C22.4554 14.9765 21.5376 14.903 20.9337 14.3518C20.3457 13.8155 20.1838 12.9127 20.5473 12.2046C20.9138 11.4905 21.7303 11.0893 22.514 11.274C22.7554 11.3306 22.9233 11.3028 23.0613 11.1081C23.5371 10.4387 24.1728 10.2222 24.9883 10.2957C25.763 10.3652 26.5487 10.3106 27.3294 10.3106C27.4625 10.3106 27.5966 10.3106 27.7516 10.3106V8.25376H8.2525V11.3127ZM14.9403 11.8222C14.9383 12.3575 15.3108 12.7369 15.8362 12.7349C16.3487 12.7329 16.749 12.3277 16.7421 11.8163C16.7351 11.3187 16.3477 10.9313 15.8481 10.9224C15.3217 10.9135 14.9413 11.2889 14.9403 11.8222ZM13.2676 15.5496C12.762 15.5436 12.3518 15.9528 12.3518 16.4633C12.3518 16.9599 12.7362 17.3601 13.2308 17.379C13.7295 17.3979 14.1625 16.9847 14.1695 16.4822C14.1774 15.9727 13.7741 15.5565 13.2676 15.5506V15.5496ZM17.784 20.0784C17.791 19.5679 17.3907 19.1538 16.8821 19.1448C16.3825 19.1359 15.9653 19.554 15.9663 20.0625C15.9663 20.5591 16.3557 20.9614 16.8484 20.9753C17.3519 20.9892 17.7771 20.582 17.784 20.0784ZM21.0976 22.6507C21.1065 23.1592 21.5267 23.5615 22.0333 23.5466C22.5428 23.5317 22.9272 23.1165 22.9113 22.5981C22.8964 22.1065 22.4932 21.7191 21.9975 21.7211C21.4909 21.7231 21.0887 22.1383 21.0976 22.6497V22.6507ZM12.8593 23.2C12.8713 22.7828 12.5097 22.4104 12.0876 22.4064C11.6823 22.4024 11.3277 22.7481 11.3148 23.1582C11.3019 23.5823 11.6555 23.9478 12.0806 23.9498C12.4789 23.9518 12.8474 23.5972 12.8583 23.2H12.8593ZM23.0375 17.964C23.0405 17.5488 22.666 17.1804 22.2488 17.1873C21.8366 17.1943 21.4989 17.5379 21.4969 17.9521C21.4949 18.3791 21.8555 18.7386 22.2766 18.7297C22.6849 18.7208 23.0345 18.3682 23.0365 17.963L23.0375 17.964ZM22.1316 12.2642C21.7154 12.2711 21.3807 12.6118 21.3817 13.0259C21.3817 13.456 21.7343 13.7956 22.1713 13.7867C22.5945 13.7778 22.9173 13.449 22.9163 13.0259C22.9163 12.5909 22.5706 12.2562 22.1316 12.2642Z" fill="white"/>
</svg>
